{
  "accessors": [
    {
      "bufferView": 2,
      "componentType": 5126,
      "count": 14065,
      "max": [
        0.17512226104736328,
        0.5936632752418518,
        0.24160483479499817
      ],
      "min": [
        -0.1931123286485672,
        -0.42470258474349976,
        -0.22582897543907166
      ],
      "type": "VEC3"
    },
    {
      "bufferView": 2,
      "byteOffset": 168780,
      "componentType": 5126,
      "count": 14065,
      "max": [
        0.9999485015869141,
        0.9993603229522705,
        0.9997754096984863
      ],
      "min": [
        -0.9999529719352722,
        -0.9992705583572388,
        -0.9999991655349731
      ],
      "type": "VEC3"
    },
    {
      "bufferView": 3,
      "componentType": 5126,
      "count": 14065,
      "max": [
        0.9999971389770508,
        0.999554455280304,
        0.9999857544898987,
        1.0
      ],
      "min": [
        -0.9993168711662292,
        -0.9999350905418396,
        -0.9999785423278809,
        -1.0
      ],
      "type": "VEC4"
    },
    {
      "bufferView": 1,
      "componentType": 5126,
      "count": 14065,
      "max": [
        1.0,
        1.0
      ],
      "min": [
        0.0,
        0.0
      ],
      "type": "VEC2"
    },
    {
      "bufferView": 1,
      "byteOffset": 112520,
      "componentType": 5126,
      "count": 14065,
      "max": [
        1.0,
        1.0
      ],
      "min": [
        0.0,
        0.0
      ],
      "type": "VEC2"
    },
    {
      "bufferView": 0,
      "componentType": 5125,
      "count": 65559,
      "type": "SCALAR"
    }
  ],
  "asset": {
    "extras": {
      "author": "EFX (https://sketchfab.com/evan4129)",
      "license": "CC-BY-4.0 (http://creativecommons.org/licenses/by/4.0/)",
      "source": "https://sketchfab.com/3d-models/converse-scan-medpoly-c4be89ef39964b068cca3b6a62d4fc58",
      "title": "Converse Scan MEDPOLY"
    },
    "generator": "Sketchfab-16.33.0",
    "version": "2.0"
  },
  "bufferViews": [
    {
      "buffer": 0,
      "byteLength": 262236,
      "name": "floatBufferViews",
      "target": 34963
    },
    {
      "buffer": 0,
      "byteLength": 225040,
      "byteOffset": 262236,
      "byteStride": 8,
      "name": "floatBufferViews",
      "target": 34962
    },
    {
      "buffer": 0,
      "byteLength": 337560,
      "byteOffset": 487276,
      "byteStride": 12,
      "name": "floatBufferViews",
      "target": 34962
    },
    {
      "buffer": 0,
      "byteLength": 225040,
      "byteOffset": 824836,
      "byteStride": 16,
      "name": "floatBufferViews",
      "target": 34962
    }
  ],
  "buffers": [
    {
      "byteLength": 1049876,
      "uri": "scene.bin"
    }
  ],
  "extensionsUsed": [
    "KHR_materials_specular"
  ],
  "images": [
    {
      "uri": "textures/Converse_baseColor.png"
    },
    {
      "uri": "textures/Converse_metallicRoughness.png"
    },
    {
      "uri": "textures/Converse_normal.png"
    }
  ],
  "materials": [
    {
      "doubleSided": true,
      "extensions": {
        "KHR_materials_specular": {
          "specularColorFactor": [
            1.0,
            1.0,
            1.0
          ],
          "specularFactor": 0.08936431515885943
        }
      },
      "name": "Converse",
      "normalTexture": {
        "index": 2
      },
      "pbrMetallicRoughness": {
        "baseColorTexture": {
          "index": 0
        },
        "metallicFactor": 0.0,
        "metallicRoughnessTexture": {
          "index": 1
        }
      }
    }
  ],
  "meshes": [
    {
      "name": "Converse_Converse_0",
      "primitives": [
        {
          "attributes": {
            "NORMAL": 1,
            "POSITION": 0,
            "TANGENT": 2,
            "TEXCOORD_0": 3,
            "TEXCOORD_1": 4
          },
          "indices": 5,
          "material": 0,
          "mode": 4
        }
      ]
    }
  ],
  "nodes": [
    {
      "children": [
        1
      ],
      "matrix": [
        1.0,
        0.0,
        0.0,
        0.0,
        0.0,
        2.220446049250313e-16,
        -1.0,
        0.0,
        0.0,
        1.0,
        2.220446049250313e-16,
        0.0,
        0.0,
        0.0,
        0.0,
        1.0
      ],
      "name": "Sketchfab_model"
    },
    {
      "children": [
        2
      ],
      "matrix": [
        0.009999999776482582,
        0.0,
        0.0,
        0.0,
        0.0,
        0.0,
        0.009999999776482582,
        0.0,
        0.0,
        -0.009999999776482582,
        0.0,
        0.0,
        0.0,
        0.0,
        0.0,
        1.0
      ],
      "name": "SingleConverse.fbx"
    },
    {
      "children": [
        3
      ],
      "name": "RootNode"
    },
    {
      "children": [
        4
      ],
      "matrix": [
        91.82787640945325,
        1.7039136462893012e-06,
        -39.59344786868372,
        0.0,
        -39.59344786868332,
        1.873604201785284e-05,
        -91.82787640945152,
        0.0,
        5.853577306202951e-06,
        99.99999999999822,
        1.7879547664634288e-05,
        0.0,
        1.0943388938903809,
        22.188209533691406,
        6.593902587890625,
        1.0
      ],
      "name": "Converse"
    },
    {
      "mesh": 0,
      "name": "Converse_Converse_0"
    }
  ],
  "samplers": [
    {
      "magFilter": 9729,
      "minFilter": 9987,
      "wrapS": 10497,
      "wrapT": 10497
    }
  ],
  "scene": 0,
  "scenes": [
    {
      "name": "Sketchfab_Scene",
      "nodes": [
        0
      ]
    }
  ],
  "textures": [
    {
      "sampler": 0,
      "source": 0
    },
    {
      "sampler": 0,
      "source": 1
    },
    {
      "sampler": 0,
      "source": 2
    }
  ]
}
